# xmcd
#
# Track frame offsets: 
#        150
#        17361
#        45200
#        71975
#        92381
#        117439
#        143484
#        165473
#        190523
#        211685
#
# Disc length: 3072 seconds
#
# Revision: 0
# Processed by: cddbd v1.5.2PL0 Copyright (c) Steve Scherf et al.
# Submitted via: ExactAudioCopy v1.0b3
#
DISCID=700bfe0a
DTITLE=Truong Vu, Hong Truc - Nho Mot Nguoi
DYEAR=1998
DGENRE=
TTITLE0=Truong Vu - Xin dung yeu toi
TTITLE1=Hong Truc - Nho mot nguoi
TTITLE2=Truong Vu - Con nho hom nao
TTITLE3=Hong Truc - Chuyen tinh hoa xuong rong
TTITLE4=Truong Vu - Co the thoi
TTITLE5=Hong Truc - Truoc gio tam biet
TTITLE6=Truong Vu - Ngay xa toi
TTITLE7=Hong Truc - Bien tinh
TTITLE8=Truong Vu - Huong tinh cu
TTITLE9=Hong Truc - Anh duong anh em duong em
EXTD=
EXTT0=
EXTT1=
EXTT2=
EXTT3=
EXTT4=
EXTT5=
EXTT6=
EXTT7=
EXTT8=
EXTT9=
PLAYORDER=
